<svg id="_1-Image" data-name="1-Image" xmlns="http://www.w3.org/2000/svg" viewBox="0 0 64 64"><defs><style>.cls-1{fill:#272835;}</style></defs><title>1-Image</title><path class="cls-1" d="M63,2H1A1,1,0,0,0,0,3V59a1,1,0,0,0,1,1H63a1,1,0,0,0,1-1V3A1,1,0,0,0,63,2ZM62,58H2V4H62Z"/><path class="cls-1" d="M7,46H57a1,1,0,0,0,1-1V9a1,1,0,0,0-1-1H7A1,1,0,0,0,6,9V45A1,1,0,0,0,7,46Zm49-2H46.41l-10-10L45,25.41l11,11ZM8,10H56V33.59L45.7,23.28a1,1,0,0,0-1.41,0L35,32.58l-9.32-9.32a1,1,0,0,0-1.41,0L8,39.52ZM8,42.34l17-17L43.59,44H8Z"/><path class="cls-1" d="M35,25a6,6,0,1,0-6-6A6,6,0,0,0,35,25Zm0-10a4,4,0,1,1-4,4A4,4,0,0,1,35,15Z"/><path class="cls-1" d="M7,55h6a1,1,0,0,0,1-1V50a1,1,0,0,0-1-1H7a1,1,0,0,0-1,1v4A1,1,0,0,0,7,55Zm1-4h4v2H8Z"/><rect class="cls-1" x="16" y="49" width="2" height="2"/><rect class="cls-1" x="20" y="49" width="2" height="2"/><rect class="cls-1" x="16" y="53" width="12" height="2"/></svg>