<svg xmlns="http://www.w3.org/2000/svg" viewBox="0 0 64 64"><defs><style>.cls-1{fill:#272835;}</style></defs><title>10-Folder</title><g id="_10-Folder" data-name="10-Folder"><path class="cls-1" d="M61,15H56V12a1,1,0,0,0-1-1H24V8a1,1,0,0,0-1-1H1A1,1,0,0,0,0,8V56a3,3,0,0,0,3,3H61a3,3,0,0,0,3-3V18A3,3,0,0,0,61,15ZM24,13H54v2H24ZM62,56a1,1,0,0,1-1,1H3a1,1,0,0,1-1-1V9H22v6H9v2H61a1,1,0,0,1,1,1Z"/><path class="cls-1" d="M55,19H13a1,1,0,0,0-1,1v3H9a1,1,0,0,0-1,1V54a1,1,0,0,0,1,1H51a1,1,0,0,0,1-1V51h3a1,1,0,0,0,1-1V20A1,1,0,0,0,55,19ZM10,53V49.41l12-12L37.59,53Zm40,0H40.41l-7-7L42,37.41l8,8Zm0-10.41-7.29-7.29a1,1,0,0,0-1.41,0L32,44.59l-9.29-9.29a1,1,0,0,0-1.41,0L10,46.59V25H50ZM54,49H52V24a1,1,0,0,0-1-1H14V21H54Z"/><rect class="cls-1" x="5" y="15" width="2" height="2"/><path class="cls-1" d="M32,38a5,5,0,1,0-5-5A5,5,0,0,0,32,38Zm0-8a3,3,0,1,1-3,3A3,3,0,0,1,32,30Z"/><rect class="cls-1" x="46" y="27" width="2" height="2"/><rect class="cls-1" x="42" y="27" width="2" height="2"/></g></svg>