<svg xmlns="http://www.w3.org/2000/svg" viewBox="0 0 64 64"><defs><style>.cls-1{fill:#272835;}</style></defs><title>11-Video</title><g id="_11-Video" data-name="11-Video"><path class="cls-1" d="M63,23H57a1,1,0,0,0-.71.29L51.59,28H48V25a3,3,0,0,0-3-3H42.3A11,11,0,1,0,26,8.44,11,11,0,1,0,9.7,22H9a3,3,0,0,0-3,3v9H1a1,1,0,0,0-1,1V47a1,1,0,0,0,1,1H6v9a3,3,0,0,0,3,3H45a3,3,0,0,0,3-3V54h3.59l4.71,4.71A1,1,0,0,0,57,59h6a1,1,0,0,0,1-1V24A1,1,0,0,0,63,23ZM36,4a9,9,0,1,1-9,9A9,9,0,0,1,36,4ZM29.7,22H22.3A11.06,11.06,0,0,0,26,17.56,11.06,11.06,0,0,0,29.7,22ZM7,13a9,9,0,1,1,9,9A9,9,0,0,1,7,13ZM41,58H13V42H41Zm5-1a1,1,0,0,1-1,1H43V41a1,1,0,0,0-1-1H12a1,1,0,0,0-1,1V58H9a1,1,0,0,1-1-1V47a1,1,0,0,0-1-1H2V36H6v7H8V25a1,1,0,0,1,1-1H45a1,1,0,0,1,1,1ZM62,41V57H57.41l-4.71-4.71A1,1,0,0,0,52,52H48V30h3V45h2V29.41L57.41,25H62Z"/><rect class="cls-1" x="51" y="47" width="2" height="2"/><path class="cls-1" d="M21,13a5,5,0,1,0-5,5A5,5,0,0,0,21,13Zm-8,0a3,3,0,1,1,3,3A3,3,0,0,1,13,13Z"/><path class="cls-1" d="M36,18a5,5,0,1,0-5-5A5,5,0,0,0,36,18Zm0-8a3,3,0,1,1-3,3A3,3,0,0,1,36,10Z"/><path class="cls-1" d="M42,27H12a1,1,0,0,0-1,1v4a1,1,0,0,0,1,1H42a1,1,0,0,0,1-1V28A1,1,0,0,0,42,27Zm-1,4H13V29H41Z"/><rect class="cls-1" x="11" y="35" width="2" height="2"/><rect class="cls-1" x="15" y="35" width="2" height="2"/><rect class="cls-1" x="35" y="35" width="8" height="2"/><path class="cls-1" d="M17,55H37a1,1,0,0,0,1-1V46a1,1,0,0,0-1-1H17a1,1,0,0,0-1,1v8A1,1,0,0,0,17,55Zm1-4H33V49H18V47H36v6H18Z"/></g></svg>