<svg xmlns="http://www.w3.org/2000/svg" viewBox="0 0 64 64"><defs><style>.cls-1{fill:#272835;}</style></defs><title>12-Camera</title><g id="_12-Camera" data-name="12-Camera"><path class="cls-1" d="M60,16V14H56v2H54V14H50v2H48.62l-1.72-3.45A1,1,0,0,0,46,12H43V9a1,1,0,0,0-1-1H22a1,1,0,0,0-1,1v3H18a1,1,0,0,0-.89.55L15.38,16H12V14H6v2H4a4,4,0,0,0-4,4V52a4,4,0,0,0,4,4H60a4,4,0,0,0,4-4V20A4,4,0,0,0,60,16Zm2,36a2,2,0,0,1-2,2H4a2,2,0,0,1-2-2V20a2,2,0,0,1,2-2H42V16H17.62l1-2H22a1,1,0,0,0,1-1V10H41v3a1,1,0,0,0,1,1h3.38l1.72,3.45A1,1,0,0,0,48,18H60a2,2,0,0,1,2,2Z"/><rect class="cls-1" x="25" y="12" width="14" height="2"/><path class="cls-1" d="M48.29,31.29,45,34.59V26a2,2,0,0,0-2-2H26v2H43v8.59l-3.29-3.29-1.41,1.41,5,5a1,1,0,0,0,1.41,0l5-5Z"/><path class="cls-1" d="M21,37.41l3.29,3.29,1.41-1.41-5-5a1,1,0,0,0-1.41,0l-5,5,1.41,1.41L19,37.41V46a2,2,0,0,0,2,2H38V46H21Z"/><rect class="cls-1" x="31" y="35" width="2" height="2"/><rect class="cls-1" x="35" y="35" width="2" height="2"/><rect class="cls-1" x="27" y="35" width="2" height="2"/><path class="cls-1" d="M17,26V22a1,1,0,0,0-1-1H6a1,1,0,0,0-1,1v4a1,1,0,0,0,1,1H16A1,1,0,0,0,17,26Zm-2-1H7V23h8Z"/><rect class="cls-1" x="57" y="45" width="2" height="2"/><rect class="cls-1" x="53" y="45" width="2" height="2"/><rect class="cls-1" x="49" y="49" width="10" height="2"/></g></svg>