<svg xmlns="http://www.w3.org/2000/svg" viewBox="0 0 64 64"><defs><style>.cls-1{fill:#272835;}</style></defs><title>13-Spotlight</title><g id="_13-Spotlight" data-name="13-Spotlight"><rect class="cls-1" x="40" y="9" width="2" height="2"/><rect class="cls-1" x="22" y="53" width="2" height="2"/><path class="cls-1" d="M63,10H57a1,1,0,0,0-.71.29l-3,3A1,1,0,0,0,53,14v3H51V15a2,2,0,0,0-2-2H47V11h3a1,1,0,0,0,.71-.29l3-3A1,1,0,0,0,54,7V1a1,1,0,0,0-1-1H11a1,1,0,0,0-1,1V7a1,1,0,0,0,.29.71l3,3A1,1,0,0,0,14,11h3v2H15a2,2,0,0,0-2,2v2H11V14a1,1,0,0,0-.29-.71l-3-3A1,1,0,0,0,7,10H1a1,1,0,0,0-1,1V53a1,1,0,0,0,1,1H7a1,1,0,0,0,.71-.29l3-3A1,1,0,0,0,11,50V47h2v2a2,2,0,0,0,2,2h2v2H14a1,1,0,0,0-.71.29l-3,3A1,1,0,0,0,10,57v6a1,1,0,0,0,1,1H53a1,1,0,0,0,1-1V57a1,1,0,0,0-.29-.71l-3-3A1,1,0,0,0,50,53H47V51h2a2,2,0,0,0,2-2V47h2v3a1,1,0,0,0,.29.71l3,3A1,1,0,0,0,57,54h6a1,1,0,0,0,1-1V11A1,1,0,0,0,63,10ZM13,45H11V26H9V49.59L6.59,52H2V47H7V45H2V40H5V38H2V33H7V31H2V26H5V24H2V19H7V17H2V12H6.59L9,14.41V18a1,1,0,0,0,1,1h3ZM14.41,9,12,6.59V2h5V7h2V2h5V5h2V2h5V7h2V2h5V5h2V2h5V7h2V2h5V6.59L49.59,9H46a1,1,0,0,0-1,1v3H19V11H38V9H14.41ZM49.59,55,52,57.41V62H47V57H45v5H40V59H38v3H33V57H31v5H26V59H24v3H19V57H17v5H12V57.41L14.41,55H18a1,1,0,0,0,1-1V51H45v2H26v2H49.59ZM49,49H15V15H49ZM62,17H57v2h5v5H59v2h3v5H57v2h5v5H59v2h3v5H57v2h5v5H57.41L55,49.59V46a1,1,0,0,0-1-1H51V19h2V38h2V14.41L57.41,12H62Z"/><rect class="cls-1" x="53" y="40" width="2" height="2"/><rect class="cls-1" x="9" y="22" width="2" height="2"/><path class="cls-1" d="M18,47H46a1,1,0,0,0,1-1V18a1,1,0,0,0-1-1H18a1,1,0,0,0-1,1V46A1,1,0,0,0,18,47Zm27-2H39.45A15.09,15.09,0,0,0,45,39.45Zm0-26v5.55A15.09,15.09,0,0,0,39.45,19ZM19,19h5.55A15.09,15.09,0,0,0,19,24.55Zm13,0A13,13,0,1,1,19,32,13,13,0,0,1,32,19ZM19,39.45A15.09,15.09,0,0,0,24.55,45H19Z"/><path class="cls-1" d="M32,42A10,10,0,1,0,22,32,10,10,0,0,0,32,42Zm0-18a8,8,0,1,1-8,8A8,8,0,0,1,32,24Z"/><path class="cls-1" d="M32,29V27a5,5,0,0,0-5,5h2A3,3,0,0,1,32,29Z"/></g></svg>