<svg xmlns="http://www.w3.org/2000/svg" viewBox="0 0 64 64"><defs><style>.cls-1{fill:#272835;}</style></defs><title>14-Focus</title><g id="_14-Focus" data-name="14-Focus"><path class="cls-1" d="M9,9h7V7H8A1,1,0,0,0,7,8v8H9Z"/><path class="cls-1" d="M55,0H9A9,9,0,0,0,0,9V55a9,9,0,0,0,9,9H55a9,9,0,0,0,9-9V9A9,9,0,0,0,55,0Zm7,55a7,7,0,0,1-7,7H9a7,7,0,0,1-7-7V9A7,7,0,0,1,9,2H55a7,7,0,0,1,7,7Z"/><path class="cls-1" d="M56,7H48V9h7v7h2V8A1,1,0,0,0,56,7Z"/><path class="cls-1" d="M55,55H48v2h8a1,1,0,0,0,1-1V48H55Z"/><path class="cls-1" d="M9,48H7v8a1,1,0,0,0,1,1h8V55H9Z"/><rect class="cls-1" x="31" y="7" width="2" height="6"/><rect class="cls-1" x="31" y="51" width="2" height="6"/><rect class="cls-1" x="7" y="31" width="6" height="2"/><rect class="cls-1" x="51" y="31" width="6" height="2"/><path class="cls-1" d="M35,28H29a1,1,0,0,0-1,1v6a1,1,0,0,0,1,1h6a1,1,0,0,0,1-1V29A1,1,0,0,0,35,28Zm-1,6H30V30h4Z"/><path class="cls-1" d="M40,26h6a1,1,0,0,0,1-1V19a1,1,0,0,0-1-1H40a1,1,0,0,0-1,1v6A1,1,0,0,0,40,26Zm1-6h4v4H41Z"/><path class="cls-1" d="M24,18H18a1,1,0,0,0-1,1v6a1,1,0,0,0,1,1h6a1,1,0,0,0,1-1V19A1,1,0,0,0,24,18Zm-1,6H19V20h4Z"/><path class="cls-1" d="M46,38H40a1,1,0,0,0-1,1v6a1,1,0,0,0,1,1h6a1,1,0,0,0,1-1V39A1,1,0,0,0,46,38Zm-1,6H41V40h4Z"/><path class="cls-1" d="M24,38H18a1,1,0,0,0-1,1v6a1,1,0,0,0,1,1h6a1,1,0,0,0,1-1V39A1,1,0,0,0,24,38Zm-1,6H19V40h4Z"/><rect class="cls-1" x="46" y="31" width="2" height="2"/><rect class="cls-1" x="16" y="31" width="2" height="2"/><rect class="cls-1" x="31" y="16" width="2" height="2"/><rect class="cls-1" x="31" y="46" width="2" height="2"/></g></svg>