<svg xmlns="http://www.w3.org/2000/svg" viewBox="0 0 64 64"><defs><style>.cls-1{fill:#272835;}</style></defs><title>15-SD Card</title><g id="_15-SD_Card" data-name="15-SD Card"><path class="cls-1" d="M56,15a1,1,0,0,0,1-1V3a3,3,0,0,0-3-3H20a1,1,0,0,0-.71.29l-12,12A1,1,0,0,0,7,13v7a1,1,0,0,0,1,1h3v8H8a1,1,0,0,0-1,1V61a3,3,0,0,0,3,3H54a3,3,0,0,0,3-3V20a1,1,0,0,0-1-1H53V15ZM48,2h2V8H48ZM40,2h2v8H40ZM32,2h2v8H32ZM24,2h2v8H24ZM52,21h3V61a1,1,0,0,1-1,1H10a1,1,0,0,1-1-1V31h3a1,1,0,0,0,1-1V20a1,1,0,0,0-1-1H9V13.41L20.41,2H22v9a1,1,0,0,0,1,1h4a1,1,0,0,0,1-1V2h2v9a1,1,0,0,0,1,1h4a1,1,0,0,0,1-1V2h2v9a1,1,0,0,0,1,1h4a1,1,0,0,0,1-1V2h2V9a1,1,0,0,0,1,1h4a1,1,0,0,0,1-1V2h2a1,1,0,0,1,1,1V13H52a1,1,0,0,0-1,1v6A1,1,0,0,0,52,21Z"/><path class="cls-1" d="M47,27H17a1,1,0,0,0-1,1V56a1,1,0,0,0,1,1H47a1,1,0,0,0,1-1V28A1,1,0,0,0,47,27Zm-1,6H23v2H46V55H18V29H46Z"/><rect class="cls-1" x="41" y="46" width="2" height="2"/><rect class="cls-1" x="37" y="46" width="2" height="2"/><rect class="cls-1" x="31" y="50" width="12" height="2"/></g></svg>