<svg xmlns="http://www.w3.org/2000/svg" viewBox="0 0 64 64"><defs><style>.cls-1{fill:#f5b419;}</style></defs><title>16-Len</title><g id="_16-Len" data-name="16-Len"><path class="cls-1" d="M51,7V1a1,1,0,0,0-1-1H14a1,1,0,0,0-1,1V7a3,3,0,0,0,3,3v6H15a2,2,0,0,0-2,2V28a2,2,0,0,0,2,2h1V47a1,1,0,0,0,1,1h2v7a1,1,0,0,0,1,1h4v5a1,1,0,0,0,1,1h3v2h8V62h3a1,1,0,0,0,1-1V56h4a1,1,0,0,0,1-1V48h2a1,1,0,0,0,1-1V30h1a2,2,0,0,0,2-2V18a2,2,0,0,0-2-2H48V10A3,3,0,0,0,51,7ZM17,28H15V18h2ZM38,60H26V56H38Zm5-6H21V48H43Zm3-8H18V30H46ZM19,28V18h2V28Zm4,0V18h3V28Zm5,0V18h3V28Zm5,0V18h3V28Zm5,0V18h3V28Zm5,0V18h2V28Zm3-12H18V10H46Zm3,2V28H47V18ZM16,8a1,1,0,0,1-1-1V6H42V4H15V2H49V7a1,1,0,0,1-1,1Z"/><rect class="cls-1" x="23" y="50" width="2" height="2"/><rect class="cls-1" x="39" y="50" width="2" height="2"/><rect class="cls-1" x="27" y="50" width="10" height="2"/><rect class="cls-1" x="44" y="4" width="2" height="2"/><path class="cls-1" d="M24,43H40a1,1,0,0,0,1-1V34a1,1,0,0,0-1-1H24a1,1,0,0,0-1,1v8A1,1,0,0,0,24,43Zm1-8H39v2H31v2h8v2H25Z"/><rect class="cls-1" x="27" y="37" width="2" height="2"/></g></svg>