<svg xmlns="http://www.w3.org/2000/svg" viewBox="0 0 64 64"><defs><style>.cls-1{fill:#272835;}</style></defs><title>17-Raw file</title><g id="_17-Raw_file" data-name="17-Raw file"><path class="cls-1" d="M60,16V14H56v2H54V14H50v2H48.62l-1.72-3.45A1,1,0,0,0,46,12H43V9a1,1,0,0,0-1-1H22a1,1,0,0,0-1,1v3H18a1,1,0,0,0-.89.55L15.38,16H12V14H6v2H4a4,4,0,0,0-4,4V52a4,4,0,0,0,4,4H60a4,4,0,0,0,4-4V20A4,4,0,0,0,60,16Zm2,36a2,2,0,0,1-2,2H4a2,2,0,0,1-2-2V20a2,2,0,0,1,2-2H42V16H17.62l1-2H22a1,1,0,0,0,1-1V10H41v3a1,1,0,0,0,1,1h3.38l1.72,3.45A1,1,0,0,0,48,18H60a2,2,0,0,1,2,2Z"/><rect class="cls-1" x="25" y="12" width="14" height="2"/><path class="cls-1" d="M17,26V22a1,1,0,0,0-1-1H6a1,1,0,0,0-1,1v4a1,1,0,0,0,1,1H16A1,1,0,0,0,17,26Zm-2-1H7V23h8Z"/><path class="cls-1" d="M20,41a2,2,0,0,0,2-2V33a2,2,0,0,0-2-2H11a1,1,0,0,0-1,1V48h2V33h8v6H16a1,1,0,0,0-.71,1.71l7,7,1.41-1.41L18.41,41Z"/><path class="cls-1" d="M36,30H28a2,2,0,0,0-2,2V48h2V41h8v7h2V32A2,2,0,0,0,36,30Zm0,9H28V32h8Z"/><path class="cls-1" d="M52,46H48V30H46V46H42V30H40V46a2,2,0,0,0,2,2H52a2,2,0,0,0,2-2V30H52Z"/><rect class="cls-1" x="57" y="21" width="2" height="2"/><rect class="cls-1" x="53" y="21" width="2" height="2"/><rect class="cls-1" x="49" y="25" width="10" height="2"/></g></svg>