<svg xmlns="http://www.w3.org/2000/svg" viewBox="0 0 64 64"><defs><style>.cls-1{fill:#272835;}</style></defs><title>18-Image</title><g id="_18-Image" data-name="18-Image"><path class="cls-1" d="M63,3H1A1,1,0,0,0,0,4V60a1,1,0,0,0,1,1H63a1,1,0,0,0,1-1V4A1,1,0,0,0,63,3ZM62,59H2V5H62Z"/><path class="cls-1" d="M7,47H57a1,1,0,0,0,1-1V10a1,1,0,0,0-1-1H7a1,1,0,0,0-1,1V46A1,1,0,0,0,7,47Zm36-2H21V39.24l.73-1.46,6-2.61L31,38.41V42h2V38.41l3.25-3.25,6,2.61L43,39.24ZM29.82,22h4.36A3.55,3.55,0,0,0,37,23.91V25c0,2.77-1.31,6-5,6s-5-3.23-5-6V23.91A3.55,3.55,0,0,0,29.82,22ZM27,21.86V17.47A8.3,8.3,0,0,1,32,16a8.3,8.3,0,0,1,5,1.47v4.39c-.5-.13-1-.38-1-.86a1,1,0,0,0-1-1H29a1,1,0,0,0-1,1C28,21.47,27.5,21.72,27,21.86Zm7.84,11.89L32,36.59l-2.84-2.84.38-1.19a7,7,0,0,0,4.9,0ZM56,45H45V42H56ZM8,11H56V40H45V39a1,1,0,0,0-.11-.45l-1-2a1,1,0,0,0-.5-.47l-6.63-2.87-.54-1.67A8.2,8.2,0,0,0,39,25V17a1,1,0,0,0-.29-.71A9.73,9.73,0,0,0,32,14a9.73,9.73,0,0,0-6.71,2.29A1,1,0,0,0,25,17v8a8.2,8.2,0,0,0,2.77,6.54l-.54,1.67L20.6,36.08a1,1,0,0,0-.5.47l-1,2A1,1,0,0,0,19,39v1H8ZM8,42H19v3H8Z"/><path class="cls-1" d="M7,56h6a1,1,0,0,0,1-1V51a1,1,0,0,0-1-1H7a1,1,0,0,0-1,1v4A1,1,0,0,0,7,56Zm1-4h4v2H8Z"/><rect class="cls-1" x="16" y="50" width="2" height="2"/><rect class="cls-1" x="20" y="50" width="2" height="2"/><rect class="cls-1" x="16" y="54" width="12" height="2"/><path class="cls-1" d="M10,14v4h2V15h3V13H11A1,1,0,0,0,10,14Z"/><rect class="cls-1" x="10" y="20" width="2" height="2"/></g></svg>