<svg xmlns="http://www.w3.org/2000/svg" viewBox="0 0 64 64"><defs><style>.cls-1{fill:#272835;}</style></defs><title>19-Image</title><g id="_19-Image" data-name="19-Image"><path class="cls-1" d="M63,3H1A1,1,0,0,0,0,4V60a1,1,0,0,0,1,1H63a1,1,0,0,0,1-1V4A1,1,0,0,0,63,3ZM62,59H2V5H62Z"/><path class="cls-1" d="M7,47H57a1,1,0,0,0,1-1V10a1,1,0,0,0-1-1H7a1,1,0,0,0-1,1V46A1,1,0,0,0,7,47Zm1-5H25V40H8V11H56V40H39v2H56v3H33V38.95A11,11,0,0,0,43,28V14a1,1,0,0,0-.35-.76,1,1,0,0,0-.81-.22,8.39,8.39,0,0,0-6.34,5.09l-2.63-4.6a1,1,0,0,0-1.74,0l-2.63,4.6A8.39,8.39,0,0,0,22.16,13a1,1,0,0,0-.81.22A1,1,0,0,0,21,14V28A11,11,0,0,0,31,38.95V45H8Zm24-5a9,9,0,0,1-9-9V15.32A5.82,5.82,0,0,1,27,21a1,1,0,0,0,1.87.5L32,16l3.13,5.48A1,1,0,0,0,37,21a5.84,5.84,0,0,1,4-5.67V28A9,9,0,0,1,32,37Z"/><path class="cls-1" d="M7,56h6a1,1,0,0,0,1-1V51a1,1,0,0,0-1-1H7a1,1,0,0,0-1,1v4A1,1,0,0,0,7,56Zm1-4h4v2H8Z"/><rect class="cls-1" x="16" y="50" width="2" height="2"/><rect class="cls-1" x="20" y="50" width="2" height="2"/><rect class="cls-1" x="16" y="54" width="12" height="2"/><path class="cls-1" d="M28,28V26H26v2a4.82,4.82,0,0,0,5,5V31A2.85,2.85,0,0,1,28,28Z"/><rect class="cls-1" x="33" y="31" width="2" height="2"/></g></svg>