<svg xmlns="http://www.w3.org/2000/svg" viewBox="0 0 64 64"><defs><style>.cls-1{fill:#272835;}</style></defs><title>2-Image</title><g id="_2-Image" data-name="2-Image"><path class="cls-1" d="M57,10H1a1,1,0,0,0-1,1V57a1,1,0,0,0,1,1H57a1,1,0,0,0,1-1V11A1,1,0,0,0,57,10ZM56,56H2V12H56Z"/><path class="cls-1" d="M63,4H7A1,1,0,0,0,6,5V8H8V6H62V51H60v2h3a1,1,0,0,0,1-1V5A1,1,0,0,0,63,4Z"/><path class="cls-1" d="M6,45H50a1,1,0,0,0,1-1V16a1,1,0,0,0-1-1H6a1,1,0,0,0-1,1V44A1,1,0,0,0,6,45Zm43-2H36.41l-7-7L36,29.41l13,13ZM7,17H49V39.59L36.71,27.29a1,1,0,0,0-1.41,0L28,34.59l-7.25-7.25a1,1,0,0,0-1.41,0L7,39.67ZM7,42.49l13-13L33.59,43H7Z"/><path class="cls-1" d="M28,29a5,5,0,1,0-5-5A5,5,0,0,0,28,29Zm0-8a3,3,0,1,1-3,3A3,3,0,0,1,28,21Z"/><path class="cls-1" d="M6,54h6a1,1,0,0,0,1-1V49a1,1,0,0,0-1-1H6a1,1,0,0,0-1,1v4A1,1,0,0,0,6,54Zm1-4h4v2H7Z"/><rect class="cls-1" x="15" y="48" width="2" height="2"/><rect class="cls-1" x="19" y="48" width="2" height="2"/><rect class="cls-1" x="15" y="52" width="12" height="2"/></g></svg>