<svg xmlns="http://www.w3.org/2000/svg" viewBox="0 0 64 64"><defs><style>.cls-1{fill:#272835;}</style></defs><title>20-Clapperboard</title><g id="_20-Clapperboard" data-name="20-Clapperboard"><path class="cls-1" d="M63,0H1A1,1,0,0,0,0,1V62a2,2,0,0,0,2,2H62a2,2,0,0,0,2-2V1A1,1,0,0,0,63,0ZM58.62,2l-10,10H40.42l10-10ZM16.38,14h8.17l10,10H26.41Zm7.2,10H15.41l-10-10h8.17Zm3.8-10h8.17l10,10H37.41Zm11,0h9.17l10,10H48.41ZM47.62,2l-10,10H29.42l10-10Zm-11,0-10,10H18.42l10-10Zm-11,0-10,10H6.42l10-10ZM2,2H13.62l-10,10H2ZM2,14h.55l10,10H2ZM62,62H2V26H62Zm0-38H60.41l-10-10H62Zm0-12H51.42l10-10H62Z"/><path class="cls-1" d="M6,37H58a1,1,0,0,0,1-1V30a1,1,0,0,0-1-1H6a1,1,0,0,0-1,1v6A1,1,0,0,0,6,37Zm1-6H57v4H7Z"/><polygon class="cls-1" points="23 58 25 58 25 45 59 45 59 43 25 43 25 40 23 40 23 43 5 43 5 45 23 45 23 58"/><rect class="cls-1" x="5" y="48" width="2" height="2"/><rect class="cls-1" x="9" y="48" width="2" height="2"/><rect class="cls-1" x="5" y="56" width="12" height="2"/><rect class="cls-1" x="5" y="52" width="12" height="2"/><path class="cls-1" d="M57,48H29a1,1,0,0,0-1,1v8a1,1,0,0,0,1,1H57a1,1,0,0,0,1-1V49A1,1,0,0,0,57,48Zm-1,8H30V50H56Z"/><rect class="cls-1" x="33" y="52" width="12" height="2"/><rect class="cls-1" x="47" y="52" width="2" height="2"/><rect class="cls-1" x="51" y="52" width="2" height="2"/></g></svg>