<svg xmlns="http://www.w3.org/2000/svg" viewBox="0 0 64 64"><defs><style>.cls-1{fill:#272835;}</style></defs><title>21-Smartphone</title><g id="_21-Smartphone" data-name="21-Smartphone"><path class="cls-1" d="M49,0H15a2,2,0,0,0-2,2V62a2,2,0,0,0,2,2H49a2,2,0,0,0,2-2V2A2,2,0,0,0,49,0Zm0,62H15V52H49Zm0-12H15V12H49Zm0-40H15V2H49Z"/><path class="cls-1" d="M32,60a3,3,0,1,0-3-3A3,3,0,0,0,32,60Zm0-4a1,1,0,1,1-1,1A1,1,0,0,1,32,56Z"/><rect class="cls-1" x="36" y="5" width="2" height="2"/><rect class="cls-1" x="26" y="5" width="8" height="2"/><rect class="cls-1" x="40" y="5" width="2" height="2"/><path class="cls-1" d="M18,48H46a1,1,0,0,0,1-1V15a1,1,0,0,0-1-1H18a1,1,0,0,0-1,1V47A1,1,0,0,0,18,48Zm1-32H45V46H19Z"/><path class="cls-1" d="M21,19v4h2V20h3V18H22A1,1,0,0,0,21,19Z"/><path class="cls-1" d="M42,18H38v2h3v3h2V19A1,1,0,0,0,42,18Z"/><path class="cls-1" d="M41,42H38v2h4a1,1,0,0,0,1-1V39H41Z"/><path class="cls-1" d="M23,39H21v4a1,1,0,0,0,1,1h4V42H23Z"/><rect class="cls-1" x="31" y="18" width="2" height="4"/><rect class="cls-1" x="31" y="40" width="2" height="4"/><rect class="cls-1" x="21" y="30" width="4" height="2"/><rect class="cls-1" x="39" y="30" width="4" height="2"/><path class="cls-1" d="M32,26a5,5,0,1,0,5,5A5,5,0,0,0,32,26Zm0,8a3,3,0,1,1,3-3A3,3,0,0,1,32,34Z"/></g></svg>