<svg xmlns="http://www.w3.org/2000/svg" viewBox="0 0 64 64"><defs><style>.cls-1{fill:#272835;}</style></defs><title>22-Len</title><g id="_22-Len" data-name="22-Len"><path class="cls-1" d="M62,19V16a1,1,0,0,0-1-1H56V11a1,1,0,0,0-1-1H48V8a1,1,0,0,0-1-1H30V6a2,2,0,0,0-2-2H18a2,2,0,0,0-2,2V7H10A3,3,0,0,0,7,4H1A1,1,0,0,0,0,5V41a1,1,0,0,0,1,1H7a3,3,0,0,0,3-3h6v1a2,2,0,0,0,2,2H28a2,2,0,0,0,2-2V39H46V52H22a2,2,0,0,0-2,2v4H15v2H55a1,1,0,0,0,1-1V31h5a1,1,0,0,0,1-1V27h2V19ZM8,39a1,1,0,0,1-1,1H6V13H4V40H2V6H7A1,1,0,0,1,8,7Zm8-2H10V9h6ZM18,6H28V8H18Zm0,4H28v2H18Zm0,4H28v3H18Zm0,5H28v3H18Zm0,5H28v3H18Zm0,5H28v3H18Zm0,5H28v2H18Zm0,6V38H28v2Zm12-3V9H46V37ZM54,58H22V54H54Zm0-6H48V49h6Zm0-5H48V36h2v5h2V36h2Zm0-31V34H48V12h6Zm6,13H56V17h4Z"/><rect class="cls-1" x="50" y="30" width="2" height="2"/><rect class="cls-1" x="50" y="14" width="2" height="2"/><rect class="cls-1" x="50" y="18" width="2" height="10"/><rect class="cls-1" x="4" y="9" width="2" height="2"/><path class="cls-1" d="M42,14H34a1,1,0,0,0-1,1V31a1,1,0,0,0,1,1h8a1,1,0,0,0,1-1V15A1,1,0,0,0,42,14ZM41,30H35V16h2v8h2V16h2Z"/><rect class="cls-1" x="37" y="26" width="2" height="2"/><rect class="cls-1" x="50" y="43" width="2" height="2"/></g></svg>