<svg xmlns="http://www.w3.org/2000/svg" viewBox="0 0 64 64"><defs><style>.cls-1{fill:#227c9d;}</style></defs><title>23-Camera Bag</title><g id="_23-Camera_Bag" data-name="23-Camera Bag"><path class="cls-1" d="M60,10H48V7a2.82,2.82,0,0,0-2-2.83V1a1,1,0,0,0-1-1H19a1,1,0,0,0-1,1V4.17A2.82,2.82,0,0,0,16,7v3H4a4,4,0,0,0-4,4V35a1,1,0,0,0,1,1H2V62a2,2,0,0,0,2,2H60a2,2,0,0,0,2-2V36h1a1,1,0,0,0,1-1V14A4,4,0,0,0,60,10ZM20,2H44V4H20ZM18,7a.92.92,0,0,1,1-1H45a.92.92,0,0,1,1,1v3H18ZM60,62H4V54h7v2H9v2H21V56H19V54h7a2,2,0,0,0,2-2V45h8v7a2,2,0,0,0,2,2h7v2H43v2H55V56H53V54h7ZM19,37V47H11V37Zm-6-2V28h4v7Zm4,14v7H13V49ZM53,37V47H45V37Zm-6-2V28h4v7Zm4,14v7H47V49ZM62,15H43v2H62V34H57v2h3V52H53V49h1a1,1,0,0,0,1-1V36a1,1,0,0,0-1-1H53V28h2V26H43v2h2v7H44a1,1,0,0,0-1,1V48a1,1,0,0,0,1,1h1v3H38V45a2,2,0,0,0-2-2H28a2,2,0,0,0-2,2v7H19V49h1a1,1,0,0,0,1-1V36a1,1,0,0,0-1-1H19V28h2V26H9v2h2v7H10a1,1,0,0,0-1,1V48a1,1,0,0,0,1,1h1v3H4V36H7V34H2V17H21V15H2V14a2,2,0,0,1,2-2H60a2,2,0,0,1,2,2Z"/><rect class="cls-1" x="31" y="34" width="2" height="2"/><rect class="cls-1" x="35" y="34" width="6" height="2"/><rect class="cls-1" x="23" y="34" width="6" height="2"/><path class="cls-1" d="M27,28H37a3,3,0,0,0,3-3V23a3,3,0,0,0-3-3H27a3,3,0,0,0-3,3v2A3,3,0,0,0,27,28Zm-1-5a1,1,0,0,1,1-1H37a1,1,0,0,1,1,1v2a1,1,0,0,1-1,1H27a1,1,0,0,1-1-1Z"/><rect class="cls-1" x="28" y="23" width="8" height="2"/><rect class="cls-1" x="13" y="39" width="4" height="2"/><rect class="cls-1" x="13" y="43" width="4" height="2"/><rect class="cls-1" x="47" y="39" width="4" height="2"/><rect class="cls-1" x="47" y="43" width="4" height="2"/><rect class="cls-1" x="25" y="15" width="14" height="2"/><rect class="cls-1" x="30" y="47" width="4" height="2"/><rect class="cls-1" x="30" y="51" width="4" height="2"/></g></svg>