<svg xmlns="http://www.w3.org/2000/svg" viewBox="0 0 64 64"><defs><style>.cls-1{fill:#272835;}</style></defs><title>24-Remote</title><g id="_24-Remote" data-name="24-Remote"><path class="cls-1" d="M57,11V9H54V6H52V8H47a1,1,0,0,0-1,1V61a.91.91,0,0,1-1,1H39a.91.91,0,0,1-1-1V3a2.92,2.92,0,0,0-3-3H24a2.92,2.92,0,0,0-3,3V14H18v2H15a3,3,0,0,0-3,3V61a3,3,0,0,0,3,3H29a3,3,0,0,0,3-3V19a3,3,0,0,0-3-3H26V14H23V3a.92.92,0,0,1,1-1H35a.92.92,0,0,1,1,1V61a2.92,2.92,0,0,0,3,3h6a2.92,2.92,0,0,0,3-3V20h4v2h2V19h3V17H54V15h3V13H54V11ZM30,61a1,1,0,0,1-1,1H15a1,1,0,0,1-1-1V59H30ZM29,18a1,1,0,0,1,1,1V57H14V19a1,1,0,0,1,1-1Zm23,0H48V10h4Z"/><path class="cls-1" d="M22,32a6,6,0,1,0-6-6A6,6,0,0,0,22,32Zm0-10a4,4,0,1,1-4,4A4,4,0,0,1,22,22Z"/><circle class="cls-1" cx="22" cy="26" r="2"/><rect class="cls-1" x="21" y="35" width="2" height="2"/><rect class="cls-1" x="25" y="35" width="2" height="2"/><rect class="cls-1" x="17" y="35" width="2" height="2"/><path class="cls-1" d="M17,55H27a1,1,0,0,0,1-1V50a1,1,0,0,0-1-1H17a1,1,0,0,0-1,1v4A1,1,0,0,0,17,55Zm1-4h8v2H18Z"/></g></svg>