<svg xmlns="http://www.w3.org/2000/svg" viewBox="0 0 64 64"><defs><style>.cls-1{fill:#272835;}</style></defs><title>25-Film Reel</title><g id="_25-Film_Reel" data-name="25-Film Reel"><path class="cls-1" d="M4,33v4a1,1,0,0,0,1,1H29a1,1,0,0,0,1-1V33a1,1,0,0,0-1-1H5A1,1,0,0,0,4,33Zm2,1H28v2H6Z"/><rect class="cls-1" x="4" y="41" width="2" height="2"/><rect class="cls-1" x="8" y="41" width="2" height="2"/><rect class="cls-1" x="18" y="41" width="12" height="2"/><path class="cls-1" d="M63,14H34V11a1,1,0,0,0-1-1H28V7a1,1,0,0,0-1-1H24V1a1,1,0,0,0-1-1H11a1,1,0,0,0-1,1V6H7A1,1,0,0,0,6,7v3H1a1,1,0,0,0-1,1V63a1,1,0,0,0,1,1H33a1,1,0,0,0,1-1V60H55a1,1,0,0,0,1-1V52h7a1,1,0,0,0,1-1V15A1,1,0,0,0,63,14ZM12,2H22V6H12ZM32,59v3H2V56H32Zm0-36H13v2H32V49H27v2h5v3H2V51H21V49H2V25H7V23H2V20H32Zm0-8v3H2V12H21V10H8V8H26v3a1,1,0,0,0,1,1h5ZM62,50H59V48h3Zm0-24H59V24h3Zm0-8H37v2H62v2H58a1,1,0,0,0-1,1v4a1,1,0,0,0,1,1h4V46H58a1,1,0,0,0-1,1v3H56a2,2,0,0,0-2,2v2H37v2H54v2H34V16H62Z"/><path class="cls-1" d="M38,52h6a1,1,0,0,0,1-1V47a1,1,0,0,0-1-1H38a1,1,0,0,0-1,1v4A1,1,0,0,0,38,52Zm1-4h4v2H39Z"/><path class="cls-1" d="M48,52h3V50H49V48h4v1h2V47a1,1,0,0,0-1-1H48a1,1,0,0,0-1,1v4A1,1,0,0,0,48,52Z"/><path class="cls-1" d="M48,28h6a1,1,0,0,0,1-1V23a1,1,0,0,0-1-1H48a1,1,0,0,0-1,1v4A1,1,0,0,0,48,28Zm1-4h4v2H49Z"/><path class="cls-1" d="M38,28h6a1,1,0,0,0,1-1V23a1,1,0,0,0-1-1H38a1,1,0,0,0-1,1v4A1,1,0,0,0,38,28Zm1-4h4v2H39Z"/></g></svg>