<svg xmlns="http://www.w3.org/2000/svg" viewBox="0 0 64 64"><defs><style>.cls-1{fill:#272835;}</style></defs><title>4-Focus</title><g id="_4-Focus" data-name="4-Focus"><path class="cls-1" d="M55,0H9A9,9,0,0,0,0,9V55a9,9,0,0,0,9,9H55a9,9,0,0,0,9-9V9A9,9,0,0,0,55,0Zm7,55a7,7,0,0,1-7,7H9a7,7,0,0,1-7-7V9A7,7,0,0,1,9,2H55a7,7,0,0,1,7,7Z"/><path class="cls-1" d="M7,8v8H9V9h7V7H8A1,1,0,0,0,7,8Z"/><path class="cls-1" d="M56,7H48V9h7v7h2V8A1,1,0,0,0,56,7Z"/><path class="cls-1" d="M55,55H48v2h8a1,1,0,0,0,1-1V48H55Z"/><path class="cls-1" d="M9,48H7v8a1,1,0,0,0,1,1h8V55H9Z"/><rect class="cls-1" x="31" y="7" width="2" height="6"/><rect class="cls-1" x="31" y="51" width="2" height="6"/><rect class="cls-1" x="7" y="31" width="6" height="2"/><rect class="cls-1" x="51" y="31" width="6" height="2"/><rect class="cls-1" x="39" y="7" width="2" height="2"/><rect class="cls-1" x="23" y="7" width="2" height="2"/><rect class="cls-1" x="39" y="55" width="2" height="2"/><rect class="cls-1" x="23" y="55" width="2" height="2"/><rect class="cls-1" x="7" y="22" width="2" height="2"/><rect class="cls-1" x="7" y="40" width="2" height="2"/><rect class="cls-1" x="55" y="22" width="2" height="2"/><rect class="cls-1" x="55" y="40" width="2" height="2"/><polygon class="cls-1" points="37 31 33 31 33 27 31 27 31 31 27 31 27 33 31 33 31 37 33 37 33 33 37 33 37 31"/><path class="cls-1" d="M24,24h3V22H23a1,1,0,0,0-1,1v4h2Z"/><path class="cls-1" d="M41,22H37v2h3v3h2V23A1,1,0,0,0,41,22Z"/><path class="cls-1" d="M40,40H37v2h4a1,1,0,0,0,1-1V37H40Z"/><path class="cls-1" d="M24,37H22v4a1,1,0,0,0,1,1h4V40H24Z"/></g></svg>