<svg xmlns="http://www.w3.org/2000/svg" viewBox="0 0 64 64"><defs><style>.cls-1{fill:#272835;}</style></defs><title>5-Rec</title><g id="_5-Rec" data-name="5-Rec"><path class="cls-1" d="M55,0H9A9,9,0,0,0,0,9V55a9,9,0,0,0,9,9H55a9,9,0,0,0,9-9V9A9,9,0,0,0,55,0Zm7,55a7,7,0,0,1-7,7H9a7,7,0,0,1-7-7V9A7,7,0,0,1,9,2H55a7,7,0,0,1,7,7Z"/><path class="cls-1" d="M50,22a4,4,0,1,0-4-4A4,4,0,0,0,50,22Zm0-6a2,2,0,1,1-2,2A2,2,0,0,1,50,16Z"/><path class="cls-1" d="M22,35a2,2,0,0,0,2-2V27a2,2,0,0,0-2-2H13a1,1,0,0,0-1,1V42h2V27h8v6H18a1,1,0,0,0-.71,1.71l7,7,1.41-1.41L20.41,35Z"/><path class="cls-1" d="M27,26V41a1,1,0,0,0,1,1H38V40H29V27h9V25H28A1,1,0,0,0,27,26Z"/><rect class="cls-1" x="31" y="33" width="7" height="2"/><path class="cls-1" d="M51,42V40H47a5,5,0,0,1-5-5V32a5,5,0,0,1,5-5h4V25H47a7,7,0,0,0-7,7v3a7,7,0,0,0,7,7Z"/><rect class="cls-1" x="12" y="19" width="2" height="2"/><rect class="cls-1" x="16" y="19" width="2" height="2"/><rect class="cls-1" x="51" y="46" width="2" height="2"/><rect class="cls-1" x="43" y="46" width="6" height="2"/><path class="cls-1" d="M13,6H7A1,1,0,0,0,6,7v6H8V8h5Z"/><path class="cls-1" d="M56,56H51v2h6a1,1,0,0,0,1-1V51H56Z"/></g></svg>