<svg xmlns="http://www.w3.org/2000/svg" viewBox="0 0 64 64"><defs><style>.cls-1{fill:#272835;}</style></defs><title>6-Video</title><g id="_6-Video" data-name="6-Video"><path class="cls-1" d="M63,4H1A1,1,0,0,0,0,5V59a1,1,0,0,0,1,1H63a1,1,0,0,0,1-1V5A1,1,0,0,0,63,4ZM58.63,6l-11,11H39.46l11-11Zm-11,0-11,11H28.46l11-11Zm-11,0-11,11H17.46l11-11Zm-11,0-11,11H5.46l11-11ZM2,6H13.63l-11,11H2ZM62,58H2V55H62Zm0-5H2V24H62Zm0-31H2V19H62Zm0-5H50.46l11-11H62Z"/><path class="cls-1" d="M26.47,44.85a1,1,0,0,0,1,0l10-5a1,1,0,0,0,0-1.79l-10-5A1,1,0,0,0,26,34V44A1,1,0,0,0,26.47,44.85ZM28,35.62,34.76,39,28,42.38Z"/><rect class="cls-1" x="5" y="27" width="2" height="2"/><rect class="cls-1" x="9" y="27" width="2" height="2"/><rect class="cls-1" x="57" y="31" width="2" height="2"/><rect class="cls-1" x="53" y="31" width="2" height="2"/><rect class="cls-1" x="47" y="27" width="12" height="2"/><path class="cls-1" d="M6,37h8a1,1,0,0,0,1-1V32a1,1,0,0,0-1-1H6a1,1,0,0,0-1,1v4A1,1,0,0,0,6,37Zm1-4h6v2H7Z"/></g></svg>