<svg xmlns="http://www.w3.org/2000/svg" viewBox="0 0 64 64"><defs><style>.cls-1{fill:#361b91;}</style></defs><title>7-Digital camera</title><g id="_7-Digital_camera" data-name="7-Digital camera"><path class="cls-1" d="M60,16V14H56v2H54V14H50v2H48.62l-1.72-3.45A1,1,0,0,0,46,12H43V9a1,1,0,0,0-1-1H22a1,1,0,0,0-1,1v3H18a1,1,0,0,0-.89.55L15.38,16H12V14H6v2H4a4,4,0,0,0-4,4V52a4,4,0,0,0,4,4H60a4,4,0,0,0,4-4V20A4,4,0,0,0,60,16Zm2,36a2,2,0,0,1-2,2H4a2,2,0,0,1-2-2V48H24.83a13.87,13.87,0,0,0,14.35,0H62ZM20,36A12,12,0,1,1,32,48,12,12,0,0,1,20,36ZM62,46H41.78a14,14,0,1,0-19.56,0H2V20a2,2,0,0,1,2-2H42V16H17.62l1-2H22a1,1,0,0,0,1-1V10H41v3a1,1,0,0,0,1,1h3.38l1.72,3.45A1,1,0,0,0,48,18H60a2,2,0,0,1,2,2Z"/><rect class="cls-1" x="25" y="12" width="14" height="2"/><path class="cls-1" d="M41,36a9,9,0,1,0-9,9A9,9,0,0,0,41,36ZM25,36a7,7,0,1,1,7,7A7,7,0,0,1,25,36Z"/><path class="cls-1" d="M32,32a4,4,0,0,0-4,4h2a2,2,0,0,1,2-2Z"/><path class="cls-1" d="M15,20H5a1,1,0,0,0-1,1v4a1,1,0,0,0,1,1H15a1,1,0,0,0,1-1V21A1,1,0,0,0,15,20Zm-1,4H6V22h8Z"/><rect class="cls-1" x="58" y="20" width="2" height="2"/><rect class="cls-1" x="54" y="20" width="2" height="2"/><rect class="cls-1" x="50" y="24" width="10" height="2"/></g></svg>