<svg xmlns="http://www.w3.org/2000/svg" viewBox="0 0 64 64"><defs><style>.cls-1{fill:#272835;}</style></defs><title>8-Digital camera</title><g id="_8-Digital_camera" data-name="8-Digital camera"><path class="cls-1" d="M60,16V14H56v2H54V14H50v2H47V13a1,1,0,0,0-1-1H43V9a1,1,0,0,0-1-1H22a1,1,0,0,0-1,1v3H18a1,1,0,0,0-1,1v3H12V14H6v2H4a4,4,0,0,0-4,4V52a4,4,0,0,0,4,4H60a4,4,0,0,0,4-4V20A4,4,0,0,0,60,16ZM19,14h3a1,1,0,0,0,1-1V10H41v3a1,1,0,0,0,1,1h3v2H39V13a1,1,0,0,0-1-1H26a1,1,0,0,0-1,1v3H19Zm18,0v2H27V14ZM2,30H19.37a13.82,13.82,0,0,0,0,12H2ZM62,49H49v2H62v1a2,2,0,0,1-2,2H4a2,2,0,0,1-2-2V51H15V49H2V44H20.53a14,14,0,0,0,22.95,0H62ZM20,36A12,12,0,1,1,32,48,12,12,0,0,1,20,36Zm42,6H44.63a13.82,13.82,0,0,0,0-12H62Zm0-14H43.47a14,14,0,0,0-22.95,0H2V20a2,2,0,0,1,2-2H60a2,2,0,0,1,2,2Z"/><path class="cls-1" d="M32,45a9,9,0,1,0-9-9A9,9,0,0,0,32,45Zm0-16a7,7,0,1,1-7,7A7,7,0,0,1,32,29Z"/><path class="cls-1" d="M32,34V32a4,4,0,0,0-4,4h2A2,2,0,0,1,32,34Z"/><path class="cls-1" d="M15,20H5a1,1,0,0,0-1,1v4a1,1,0,0,0,1,1H15a1,1,0,0,0,1-1V21A1,1,0,0,0,15,20Zm-1,4H6V22h8Z"/><rect class="cls-1" x="58" y="20" width="2" height="2"/><rect class="cls-1" x="54" y="20" width="2" height="2"/><rect class="cls-1" x="50" y="24" width="10" height="2"/><rect class="cls-1" x="45" y="49" width="2" height="2"/><rect class="cls-1" x="17" y="49" width="2" height="2"/></g></svg>