<svg xmlns="http://www.w3.org/2000/svg" viewBox="0 0 64 64"><defs><style>.cls-1{fill:#272835;}</style></defs><title>9-Camera</title><g id="_9-Camera" data-name="9-Camera"><path class="cls-1" d="M63,16a1,1,0,0,0,1-1V6a4,4,0,0,0-4-4H4A4,4,0,0,0,0,6v9a1,1,0,0,0,1,1H2V48H1a1,1,0,0,0-1,1v9a4,4,0,0,0,4,4H60a4,4,0,0,0,4-4V49a1,1,0,0,0-1-1H62V16ZM62,58a2,2,0,0,1-2,2H4a2,2,0,0,1-2-2V50H62ZM8,14V8H56v6H41v2H60V48H4V16H23V14Zm53,0H58V7a1,1,0,0,0-1-1H7A1,1,0,0,0,6,7v7H2V6A2,2,0,0,1,4,4H60a2,2,0,0,1,2,2v8Z"/><rect class="cls-1" x="25" y="14" width="2" height="2"/><rect class="cls-1" x="37" y="14" width="2" height="2"/><rect class="cls-1" x="29" y="14" width="6" height="2"/><path class="cls-1" d="M18,32A14,14,0,1,0,32,18,14,14,0,0,0,18,32ZM32,20A12,12,0,1,1,20,32,12,12,0,0,1,32,20Z"/><path class="cls-1" d="M32,41a9,9,0,1,0-9-9A9,9,0,0,0,32,41Zm0-16a7,7,0,1,1-7,7A7,7,0,0,1,32,25Z"/><path class="cls-1" d="M32,30V28a4,4,0,0,0-4,4h2A2,2,0,0,1,32,30Z"/><rect class="cls-1" x="10" y="10" width="44" height="2"/><path class="cls-1" d="M18,19a1,1,0,0,0-1-1H7a1,1,0,0,0-1,1v4a1,1,0,0,0,1,1H17a1,1,0,0,0,1-1Zm-2,3H8V20h8Z"/><rect class="cls-1" x="56" y="40" width="2" height="2"/><rect class="cls-1" x="52" y="40" width="2" height="2"/><rect class="cls-1" x="48" y="44" width="10" height="2"/><path class="cls-1" d="M50,56H47V53a1,1,0,0,0-1-1H18a1,1,0,0,0-1,1v3H14v2H50Zm-5,0H19V54H45Z"/></g></svg>